IKResults
version=1
nRows=7
nColumns=67
inDegrees=yes

Units are S.I. units (second, meters, Newtons, ...)
Angles are in degrees.

endheader
time	pelvis_tilt	pelvis_list	pelvis_rotation	pelvis_tx	pelvis_ty	pelvis_tz	hip_flexion_r	hip_adduction_r	hip_rotation_r	knee_angle_r	knee_rot_r	knee_adduc_r	ankle_angle_r	ankle_rot_r	ankle_add_r	subtalar_angle_r	mtp_angle_r	mtp_rot_r	mtp_add_r	hip_flexion_l	hip_adduction_l	hip_rotation_l	knee_angle_l	knee_rot_l	knee_adduc_l	ankle_angle_l	ankle_rot_l	ankle_add_l	subtalar_angle_l	mtp_angle_l	mtp_rot_l	mtp_add_l	lumbar_extension	lumbar_bending	lumbar_rotation	neck_flexion	neck_lateral_bending	neck_rotation	arm_flex_r	arm_add_r	arm_rot_r	elbow_flex_r	elbow_rot_r	elbow_add_r	pro_sup_r	wrist_flex_r	wrist_adduc_r	wrist_rot_r	wrist_dev_r	hand_finger_flex_r	hand_finger_adduc_r	hand_finger_rot_r	arm_flex_l	arm_add_l	arm_rot_l	elbow_flex_l	elbow_rot_l	elbow_add_l	pro_sup_l	wrist_flex_l	wrist_adduc_l	wrist_rot_l	wrist_dev_l	hand_finger_flex_l	hand_finger_adduc_l	hand_finger_rot_l
      0.00000000	     11.01595015	      4.14405603	      2.15735777	     -2.36917664	      0.76721670	      0.85665965	    -11.49878363	      0.08278560	      1.99889338	     -9.06788419	     -5.00000000	     -1.61604269	      8.73168586	     -3.68916431	      1.85516201	     -2.33693540	      0.64967580	     -0.22085848	      0.33925539	     10.99287300	      4.91590920	      0.11513546	    -50.99338561	      5.00000000	     -1.72782462	      5.00177335	     -1.10356414	      0.12972987	     -0.37661138	      1.88851335	     -0.12585155	     -0.81923128	    -23.64738125	     -3.48969159	     -0.47506865	      0.00000000	      0.00000000	      0.00000000	      0.00000000	      0.00000000	      0.00000000	      0.00000000	      0.00000000	      0.00000000	     -0.00042092	      0.00000000	      0.00000000	      0.00000000	      0.00000000	      0.00000000	      0.00000000	      0.00000000	      0.00000000	      0.00000000	      0.00000000	      0.00000000	      0.00000000	      0.00000000	      0.00000000	      0.00000000	      0.00000000	      0.00000000	      0.00000000	      0.00000000	      0.00000000	      0.00000000
      0.00500000	     10.58981162	      3.96032383	      2.88310897	     -2.36387513	      0.76640078	      0.85646590	    -12.11737830	      0.43986832	      1.45875099	     -8.03494978	     -5.00000000	     -1.57535739	      8.62835601	     -4.28029863	      2.06951900	     -2.13539095	      2.20797535	     -0.56971725	      1.11164617	     12.41611328	      4.77519764	      4.32199947	    -50.23559316	      5.00000000	     -4.67008284	      5.19504034	      1.25331740	      0.59386306	     -0.42605439	      9.19460453	     -0.63207782	     -2.00000000	    -23.41452360	     -3.18411386	     -0.48665059	      0.00000000	      0.00000000	      0.00000000	      0.00000000	      0.00000000	      0.00000000	      0.00000000	      0.00000000	      0.00000000	     -0.00042092	      0.00000000	      0.00000000	      0.00000000	      0.00000000	      0.00000000	      0.00000000	      0.00000000	      0.00000000	      0.00000000	      0.00000000	      0.00000000	      0.00000000	      0.00000000	      0.00000000	      0.00000000	      0.00000000	      0.00000000	      0.00000000	      0.00000000	      0.00000000	      0.00000000
      0.01000000	     10.63563204	      4.45926216	      2.48341310	     -2.35747857	      0.76647900	      0.85675437	    -13.31670127	     -0.24985333	      1.28257256	     -6.93535988	     -5.00000000	     -1.48656374	      8.86995835	     -4.19797046	      2.23790236	     -1.78711444	      2.92774860	     -0.71141657	      1.46217177	     12.72329131	      5.52571003	      1.52353451	    -48.38921587	      5.00000000	     -2.52448253	      5.14856331	      0.68348471	      1.20733276	      0.43615462	     12.26719534	     -0.61604524	     -2.00000000	    -23.44396901	     -3.87768377	      0.14846179	      0.00000000	      0.00000000	      0.00000000	      0.00000000	      0.00000000	      0.00000000	      0.00000000	      0.00000000	      0.00000000	     -0.00042092	      0.00000000	      0.00000000	      0.00000000	      0.00000000	      0.00000000	      0.00000000	      0.00000000	      0.00000000	      0.00000000	      0.00000000	      0.00000000	      0.00000000	      0.00000000	      0.00000000	      0.00000000	      0.00000000	      0.00000000	      0.00000000	      0.00000000	      0.00000000	      0.00000000
      0.01500000	     10.39921919	      4.50689293	      2.58622749	     -2.35155540	      0.76588915	      0.85685935	    -14.17428507	     -0.32360985	      1.29140863	     -5.87449333	     -5.00000000	     -1.38594067	      8.96476317	     -4.25410707	      2.25777878	     -1.80797200	      2.96717445	     -0.71932308	      1.48135987	     13.54546843	      5.66392931	      1.73658949	    -47.02506184	      5.00000000	     -2.58793101	      5.46079111	      0.84872419	      1.24160747	      0.31289728	     12.43136210	     -0.60441339	     -2.00000000	    -23.30594672	     -4.00127549	      0.62714479	      0.00000000	      0.00000000	      0.00000000	      0.00000000	      0.00000000	      0.00000000	      0.00000000	      0.00000000	      0.00000000	     -0.00042092	      0.00000000	      0.00000000	      0.00000000	      0.00000000	      0.00000000	      0.00000000	      0.00000000	      0.00000000	      0.00000000	      0.00000000	      0.00000000	      0.00000000	      0.00000000	      0.00000000	      0.00000000	      0.00000000	      0.00000000	      0.00000000	      0.00000000	      0.00000000	      0.00000000
      0.02000000	     10.21915101	      4.46637832	      2.60312003	     -2.34600941	      0.76531760	      0.85697804	    -14.86077696	     -0.27798057	      1.27324329	     -5.18805400	     -5.00000000	     -1.31697585	      9.08943180	     -4.28772131	      2.28656010	     -1.82080679	      2.98884624	     -0.72288533	      1.49172928	     14.21595034	      5.76100185	      1.92372199	    -45.48961290	      5.00000000	     -2.56776297	      5.61904333	      0.93931647	      1.25050199	      0.25276703	     12.50880216	     -0.59852740	     -2.00000000	    -23.16519559	     -3.97468844	      0.94657307	      0.00000000	      0.00000000	      0.00000000	      0.00000000	      0.00000000	      0.00000000	      0.00000000	      0.00000000	      0.00000000	     -0.00042092	      0.00000000	      0.00000000	      0.00000000	      0.00000000	      0.00000000	      0.00000000	      0.00000000	      0.00000000	      0.00000000	      0.00000000	      0.00000000	      0.00000000	      0.00000000	      0.00000000	      0.00000000	      0.00000000	      0.00000000	      0.00000000	      0.00000000	      0.00000000	      0.00000000
      0.02500000	     10.12426640	      4.87985830	      2.60382346	     -2.34028933	      0.76468476	      0.85701616	    -15.90811441	     -0.76356153	      0.94765729	     -4.04081105	     -5.00000000	     -1.20641327	      9.02612646	     -4.30945112	      2.27084224	     -1.79489356	      3.08896698	     -0.73835966	      1.53940445	     14.71234241	      6.34843645	      2.14899174	    -43.86417644	      5.00000000	     -2.61616261	      5.77645760	      1.45726790	      1.43207993	     -0.03016784	     12.93314981	     -0.56538384	     -2.00000000	    -23.16577552	     -4.55268197	      1.41473585	      0.00000000	      0.00000000	      0.00000000	      0.00000000	      0.00000000	      0.00000000	      0.00000000	      0.00000000	      0.00000000	     -0.00042092	      0.00000000	      0.00000000	      0.00000000	      0.00000000	      0.00000000	      0.00000000	      0.00000000	      0.00000000	      0.00000000	      0.00000000	      0.00000000	      0.00000000	      0.00000000	      0.00000000	      0.00000000	      0.00000000	      0.00000000	      0.00000000	      0.00000000	      0.00000000	      0.00000000
      0.03000000	      9.95458733	      4.76285956	      2.69104746	     -2.33488818	      0.76385317	      0.85709726	    -16.58329386	     -0.60790092	      0.99070297	     -3.39067398	     -5.00000000	     -1.16957869	      9.23672987	     -4.28462436	      2.32683395	     -1.76822749	      3.11326530	     -0.73883065	      1.55022991	     15.33542847	      6.32073346	      2.28265145	    -42.30901967	      5.00000000	     -2.52365588	      5.83608459	      1.51401245	      1.42383111	     -0.03731901	     13.00303749	     -0.56032758	     -2.00000000	    -23.08764865	     -4.44107036	      1.66097508	      0.00000000	      0.00000000	      0.00000000	      0.00000000	      0.00000000	      0.00000000	      0.00000000	      0.00000000	      0.00000000	     -0.00042092	      0.00000000	      0.00000000	      0.00000000	      0.00000000	      0.00000000	      0.00000000	      0.00000000	      0.00000000	      0.00000000	      0.00000000	      0.00000000	      0.00000000	      0.00000000	      0.00000000	      0.00000000	      0.00000000	      0.00000000	      0.00000000	      0.00000000	      0.00000000	      0.00000000
